<mxfile host="Electron" modified="2024-02-13T15:54:59.106Z" agent="Mozilla/5.0 (Windows NT 10.0; Win64; x64) AppleWebKit/537.36 (KHTML, like Gecko) draw.io/23.0.2 Chrome/120.0.6099.109 Electron/28.1.0 Safari/537.36" etag="gMMkbJGhxuLn3Xg1FrHA" version="23.0.2" type="device">
  <diagram name="第 1 页" id="00zpdEyGkZuQAE-F2wmC">
    <mxGraphModel dx="1018" dy="686" grid="1" gridSize="10" guides="1" tooltips="1" connect="1" arrows="1" fold="1" page="1" pageScale="1" pageWidth="827" pageHeight="1169" math="0" shadow="0">
      <root>
        <mxCell id="0" />
        <mxCell id="1" parent="0" />
        <mxCell id="8xucUTkYI05MUoh6EBza-3" value="" style="edgeStyle=orthogonalEdgeStyle;rounded=0;orthogonalLoop=1;jettySize=auto;html=1;" edge="1" parent="1" source="8xucUTkYI05MUoh6EBza-1" target="8xucUTkYI05MUoh6EBza-2">
          <mxGeometry relative="1" as="geometry" />
        </mxCell>
        <mxCell id="8xucUTkYI05MUoh6EBza-25" value="1" style="edgeLabel;html=1;align=center;verticalAlign=middle;resizable=0;points=[];" vertex="1" connectable="0" parent="8xucUTkYI05MUoh6EBza-3">
          <mxGeometry x="-0.05" relative="1" as="geometry">
            <mxPoint as="offset" />
          </mxGeometry>
        </mxCell>
        <mxCell id="8xucUTkYI05MUoh6EBza-1" value="rust_main" style="rounded=0;whiteSpace=wrap;html=1;fillColor=#f8cecc;strokeColor=#b85450;" vertex="1" parent="1">
          <mxGeometry x="290" y="390" width="70" height="30" as="geometry" />
        </mxCell>
        <mxCell id="8xucUTkYI05MUoh6EBza-30" value="" style="edgeStyle=orthogonalEdgeStyle;rounded=0;orthogonalLoop=1;jettySize=auto;html=1;" edge="1" parent="1" source="8xucUTkYI05MUoh6EBza-2" target="8xucUTkYI05MUoh6EBza-29">
          <mxGeometry relative="1" as="geometry" />
        </mxCell>
        <mxCell id="8xucUTkYI05MUoh6EBza-35" value="5" style="edgeLabel;html=1;align=center;verticalAlign=middle;resizable=0;points=[];" vertex="1" connectable="0" parent="8xucUTkYI05MUoh6EBza-30">
          <mxGeometry x="-0.0966" relative="1" as="geometry">
            <mxPoint as="offset" />
          </mxGeometry>
        </mxCell>
        <mxCell id="8xucUTkYI05MUoh6EBza-2" value="run_next_app" style="rounded=0;whiteSpace=wrap;html=1;fillColor=#f8cecc;strokeColor=#b85450;" vertex="1" parent="1">
          <mxGeometry x="400" y="390" width="90" height="30" as="geometry" />
        </mxCell>
        <mxCell id="8xucUTkYI05MUoh6EBza-5" value="app_init_context" style="rounded=0;whiteSpace=wrap;html=1;fillColor=#f8cecc;strokeColor=#b85450;" vertex="1" parent="1">
          <mxGeometry x="600" y="390" width="90" height="30" as="geometry" />
        </mxCell>
        <mxCell id="8xucUTkYI05MUoh6EBza-12" value="sepc" style="rounded=0;whiteSpace=wrap;html=1;fillColor=#f8cecc;strokeColor=#b85450;" vertex="1" parent="1">
          <mxGeometry x="620" y="509.5" width="60" height="20" as="geometry" />
        </mxCell>
        <mxCell id="8xucUTkYI05MUoh6EBza-13" value="sstatus" style="rounded=0;whiteSpace=wrap;html=1;fillColor=#f8cecc;strokeColor=#b85450;" vertex="1" parent="1">
          <mxGeometry x="620" y="529.5" width="60" height="20" as="geometry" />
        </mxCell>
        <mxCell id="8xucUTkYI05MUoh6EBza-14" value="regs[0..31]" style="rounded=0;whiteSpace=wrap;html=1;fillColor=#f8cecc;strokeColor=#b85450;" vertex="1" parent="1">
          <mxGeometry x="620" y="549.5" width="60" height="20" as="geometry" />
        </mxCell>
        <mxCell id="8xucUTkYI05MUoh6EBza-15" value="" style="endArrow=classic;html=1;rounded=0;" edge="1" parent="1">
          <mxGeometry width="50" height="50" relative="1" as="geometry">
            <mxPoint x="700" y="574.5" as="sourcePoint" />
            <mxPoint x="700" y="514.5" as="targetPoint" />
          </mxGeometry>
        </mxCell>
        <mxCell id="8xucUTkYI05MUoh6EBza-16" value="地址&lt;br&gt;增长方向" style="edgeLabel;html=1;align=center;verticalAlign=middle;resizable=0;points=[];" vertex="1" connectable="0" parent="8xucUTkYI05MUoh6EBza-15">
          <mxGeometry x="0.2022" y="-2" relative="1" as="geometry">
            <mxPoint x="28" y="11" as="offset" />
          </mxGeometry>
        </mxCell>
        <mxCell id="8xucUTkYI05MUoh6EBza-21" value="" style="endArrow=classic;html=1;rounded=0;exitX=1;exitY=0.25;exitDx=0;exitDy=0;entryX=0;entryY=0.25;entryDx=0;entryDy=0;" edge="1" parent="1" source="8xucUTkYI05MUoh6EBza-2" target="8xucUTkYI05MUoh6EBza-5">
          <mxGeometry width="50" height="50" relative="1" as="geometry">
            <mxPoint x="550" y="400" as="sourcePoint" />
            <mxPoint x="550" y="340" as="targetPoint" />
          </mxGeometry>
        </mxCell>
        <mxCell id="8xucUTkYI05MUoh6EBza-26" value="2" style="edgeLabel;html=1;align=center;verticalAlign=middle;resizable=0;points=[];" vertex="1" connectable="0" parent="8xucUTkYI05MUoh6EBza-21">
          <mxGeometry x="0.0468" y="1" relative="1" as="geometry">
            <mxPoint as="offset" />
          </mxGeometry>
        </mxCell>
        <mxCell id="8xucUTkYI05MUoh6EBza-23" value="" style="endArrow=classic;html=1;rounded=0;exitX=0;exitY=0.75;exitDx=0;exitDy=0;entryX=1;entryY=0.75;entryDx=0;entryDy=0;" edge="1" parent="1" source="8xucUTkYI05MUoh6EBza-5" target="8xucUTkYI05MUoh6EBza-2">
          <mxGeometry width="50" height="50" relative="1" as="geometry">
            <mxPoint x="500" y="408" as="sourcePoint" />
            <mxPoint x="610" y="408" as="targetPoint" />
          </mxGeometry>
        </mxCell>
        <mxCell id="8xucUTkYI05MUoh6EBza-24" value="3. 返回Context" style="edgeLabel;html=1;align=center;verticalAlign=middle;resizable=0;points=[];" vertex="1" connectable="0" parent="8xucUTkYI05MUoh6EBza-23">
          <mxGeometry x="-0.1818" y="1" relative="1" as="geometry">
            <mxPoint x="-5" as="offset" />
          </mxGeometry>
        </mxCell>
        <mxCell id="8xucUTkYI05MUoh6EBza-40" value="" style="edgeStyle=orthogonalEdgeStyle;rounded=0;orthogonalLoop=1;jettySize=auto;html=1;" edge="1" parent="1" source="8xucUTkYI05MUoh6EBza-29" target="8xucUTkYI05MUoh6EBza-39">
          <mxGeometry relative="1" as="geometry" />
        </mxCell>
        <mxCell id="8xucUTkYI05MUoh6EBza-41" value="7(12). sret" style="edgeLabel;html=1;align=center;verticalAlign=middle;resizable=0;points=[];" vertex="1" connectable="0" parent="8xucUTkYI05MUoh6EBza-40">
          <mxGeometry x="-0.2202" y="-1" relative="1" as="geometry">
            <mxPoint as="offset" />
          </mxGeometry>
        </mxCell>
        <mxCell id="8xucUTkYI05MUoh6EBza-44" style="edgeStyle=orthogonalEdgeStyle;rounded=0;orthogonalLoop=1;jettySize=auto;html=1;entryX=0;entryY=0.5;entryDx=0;entryDy=0;" edge="1" parent="1" source="8xucUTkYI05MUoh6EBza-29" target="8xucUTkYI05MUoh6EBza-13">
          <mxGeometry relative="1" as="geometry" />
        </mxCell>
        <mxCell id="8xucUTkYI05MUoh6EBza-45" value="6. 从内核栈&lt;br&gt;初始化上下文" style="edgeLabel;html=1;align=center;verticalAlign=middle;resizable=0;points=[];" vertex="1" connectable="0" parent="8xucUTkYI05MUoh6EBza-44">
          <mxGeometry x="-0.0497" y="-1" relative="1" as="geometry">
            <mxPoint as="offset" />
          </mxGeometry>
        </mxCell>
        <mxCell id="8xucUTkYI05MUoh6EBza-29" value="__restore" style="rounded=0;whiteSpace=wrap;html=1;fillColor=#f8cecc;strokeColor=#b85450;" vertex="1" parent="1">
          <mxGeometry x="400" y="525" width="90" height="30" as="geometry" />
        </mxCell>
        <mxCell id="8xucUTkYI05MUoh6EBza-31" value="内核栈" style="text;html=1;align=center;verticalAlign=middle;resizable=0;points=[];autosize=1;strokeColor=none;fillColor=none;" vertex="1" parent="1">
          <mxGeometry x="620" y="478.5" width="60" height="30" as="geometry" />
        </mxCell>
        <mxCell id="8xucUTkYI05MUoh6EBza-47" value="" style="edgeStyle=orthogonalEdgeStyle;rounded=0;orthogonalLoop=1;jettySize=auto;html=1;" edge="1" parent="1" source="8xucUTkYI05MUoh6EBza-39" target="8xucUTkYI05MUoh6EBza-46">
          <mxGeometry relative="1" as="geometry" />
        </mxCell>
        <mxCell id="8xucUTkYI05MUoh6EBza-48" value="8. ecall/非法指令&lt;br&gt;/页错误" style="edgeLabel;html=1;align=center;verticalAlign=middle;resizable=0;points=[];" vertex="1" connectable="0" parent="8xucUTkYI05MUoh6EBza-47">
          <mxGeometry x="-0.1952" y="-1" relative="1" as="geometry">
            <mxPoint as="offset" />
          </mxGeometry>
        </mxCell>
        <mxCell id="8xucUTkYI05MUoh6EBza-39" value="APP" style="rounded=0;whiteSpace=wrap;html=1;fillColor=#dae8fc;strokeColor=#6c8ebf;" vertex="1" parent="1">
          <mxGeometry x="400" y="635" width="90" height="30" as="geometry" />
        </mxCell>
        <mxCell id="8xucUTkYI05MUoh6EBza-42" value="" style="endArrow=classic;html=1;rounded=0;exitX=0.75;exitY=1;exitDx=0;exitDy=0;entryX=0;entryY=0.5;entryDx=0;entryDy=0;" edge="1" parent="1" source="8xucUTkYI05MUoh6EBza-2" target="8xucUTkYI05MUoh6EBza-12">
          <mxGeometry width="50" height="50" relative="1" as="geometry">
            <mxPoint x="560" y="650" as="sourcePoint" />
            <mxPoint x="610" y="600" as="targetPoint" />
          </mxGeometry>
        </mxCell>
        <mxCell id="8xucUTkYI05MUoh6EBza-43" value="4. 用Context&lt;br style=&quot;border-color: var(--border-color);&quot;&gt;初始化内核栈" style="edgeLabel;html=1;align=center;verticalAlign=middle;resizable=0;points=[];" vertex="1" connectable="0" parent="8xucUTkYI05MUoh6EBza-42">
          <mxGeometry x="-0.0124" y="1" relative="1" as="geometry">
            <mxPoint as="offset" />
          </mxGeometry>
        </mxCell>
        <mxCell id="8xucUTkYI05MUoh6EBza-50" style="edgeStyle=orthogonalEdgeStyle;rounded=0;orthogonalLoop=1;jettySize=auto;html=1;entryX=0.5;entryY=1;entryDx=0;entryDy=0;" edge="1" parent="1" source="8xucUTkYI05MUoh6EBza-46" target="8xucUTkYI05MUoh6EBza-14">
          <mxGeometry relative="1" as="geometry" />
        </mxCell>
        <mxCell id="8xucUTkYI05MUoh6EBza-51" value="9. 保存上下文&lt;br&gt;到内核栈" style="edgeLabel;html=1;align=center;verticalAlign=middle;resizable=0;points=[];" vertex="1" connectable="0" parent="8xucUTkYI05MUoh6EBza-50">
          <mxGeometry x="0.06" relative="1" as="geometry">
            <mxPoint as="offset" />
          </mxGeometry>
        </mxCell>
        <mxCell id="8xucUTkYI05MUoh6EBza-53" value="" style="edgeStyle=orthogonalEdgeStyle;rounded=0;orthogonalLoop=1;jettySize=auto;html=1;" edge="1" parent="1" source="8xucUTkYI05MUoh6EBza-46" target="8xucUTkYI05MUoh6EBza-52">
          <mxGeometry relative="1" as="geometry" />
        </mxCell>
        <mxCell id="8xucUTkYI05MUoh6EBza-54" value="10" style="edgeLabel;html=1;align=center;verticalAlign=middle;resizable=0;points=[];" vertex="1" connectable="0" parent="8xucUTkYI05MUoh6EBza-53">
          <mxGeometry x="-0.1302" relative="1" as="geometry">
            <mxPoint as="offset" />
          </mxGeometry>
        </mxCell>
        <mxCell id="8xucUTkYI05MUoh6EBza-46" value="__alltraps" style="rounded=0;whiteSpace=wrap;html=1;fillColor=#f8cecc;strokeColor=#b85450;" vertex="1" parent="1">
          <mxGeometry x="622.5" y="635" width="55" height="30" as="geometry" />
        </mxCell>
        <mxCell id="8xucUTkYI05MUoh6EBza-55" style="edgeStyle=orthogonalEdgeStyle;rounded=0;orthogonalLoop=1;jettySize=auto;html=1;entryX=0.5;entryY=0;entryDx=0;entryDy=0;" edge="1" parent="1" source="8xucUTkYI05MUoh6EBza-52" target="8xucUTkYI05MUoh6EBza-2">
          <mxGeometry relative="1" as="geometry">
            <Array as="points">
              <mxPoint x="800" y="370" />
              <mxPoint x="445" y="370" />
            </Array>
          </mxGeometry>
        </mxCell>
        <mxCell id="8xucUTkYI05MUoh6EBza-56" value="11. 情况2: &lt;br&gt;非法指令&lt;br style=&quot;border-color: var(--border-color);&quot;&gt;/页错误" style="edgeLabel;html=1;align=center;verticalAlign=middle;resizable=0;points=[];" vertex="1" connectable="0" parent="8xucUTkYI05MUoh6EBza-55">
          <mxGeometry x="-0.5876" relative="1" as="geometry">
            <mxPoint as="offset" />
          </mxGeometry>
        </mxCell>
        <mxCell id="8xucUTkYI05MUoh6EBza-57" style="edgeStyle=orthogonalEdgeStyle;rounded=0;orthogonalLoop=1;jettySize=auto;html=1;entryX=0;entryY=0.5;entryDx=0;entryDy=0;exitX=0.5;exitY=1;exitDx=0;exitDy=0;" edge="1" parent="1" source="8xucUTkYI05MUoh6EBza-52" target="8xucUTkYI05MUoh6EBza-29">
          <mxGeometry relative="1" as="geometry">
            <Array as="points">
              <mxPoint x="795" y="720" />
              <mxPoint x="330" y="720" />
              <mxPoint x="330" y="540" />
            </Array>
          </mxGeometry>
        </mxCell>
        <mxCell id="8xucUTkYI05MUoh6EBza-58" value="11. 情况2&amp;nbsp;&lt;br&gt;ecall系统调用&lt;br&gt;完成后" style="edgeLabel;html=1;align=center;verticalAlign=middle;resizable=0;points=[];" vertex="1" connectable="0" parent="8xucUTkYI05MUoh6EBza-57">
          <mxGeometry x="-0.0261" relative="1" as="geometry">
            <mxPoint as="offset" />
          </mxGeometry>
        </mxCell>
        <mxCell id="8xucUTkYI05MUoh6EBza-52" value="Trap handler" style="rounded=0;whiteSpace=wrap;html=1;fillColor=#f8cecc;strokeColor=#b85450;" vertex="1" parent="1">
          <mxGeometry x="750" y="635" width="90" height="30" as="geometry" />
        </mxCell>
      </root>
    </mxGraphModel>
  </diagram>
</mxfile>
